<?xml version="1.0" standalone="no"?>
<!DOCTYPE svg PUBLIC "-//W3C//DTD SVG 20010904//EN"
 "http://www.w3.org/TR/2001/REC-SVG-20010904/DTD/svg10.dtd">
<svg version="1.0" xmlns="http://www.w3.org/2000/svg"
 width="512.000000pt" height="512.000000pt" viewBox="0 0 512.000000 512.000000"
 preserveAspectRatio="xMidYMid meet">
<metadata>
Created by potrace 1.14, written by Peter Selinger 2001-2017
</metadata>
<g transform="translate(0.000000,512.000000) scale(0.100000,-0.100000)"
fill="#000000" stroke="none">
<path d="M2055 4098 c-18 -58 -14 -87 16 -144 37 -71 36 -105 -12 -251 -41
-124 -50 -254 -24 -332 15 -45 35 -69 35 -41 0 6 7 10 15 10 8 0 15 5 15 11 0
5 5 7 10 4 6 -3 10 -14 10 -23 0 -16 47 -72 62 -72 17 0 7 71 -17 116 -33 62
-32 109 6 230 64 208 55 364 -27 471 -18 24 -33 33 -55 33 -16 0 -31 -6 -34
-12z"/>
<path d="M2883 4098 c-6 -7 -13 -32 -17 -54 -4 -31 -1 -47 12 -65 53 -71 53
-105 1 -284 -36 -126 -40 -149 -36 -225 3 -80 24 -160 34 -133 2 7 11 9 19 6
8 -3 17 4 23 18 l10 24 0 -23 c1 -35 49 -101 74 -102 15 0 6 74 -14 106 -35
57 -35 125 -1 235 57 180 61 300 16 408 -35 83 -93 125 -121 89z"/>
<path d="M2176 3215 c-6 -17 -37 -20 -53 -4 -14 14 -154 -21 -220 -55 -65 -33
-126 -100 -152 -170 -11 -31 -21 -61 -21 -65 0 -5 -9 -11 -20 -14 -23 -6 -27
-42 -6 -50 19 -7 10 -208 -10 -220 -18 -10 -18 -56 0 -76 19 -22 5 -183 -18
-207 -9 -8 -16 -21 -16 -28 0 -16 -32 -46 -49 -46 -7 0 -19 -7 -27 -15 -9 -8
-30 -15 -48 -15 -59 0 -109 -78 -92 -145 9 -36 45 -34 52 4 6 26 10 29 58 33
65 6 120 32 148 71 38 53 48 126 48 364 0 127 5 245 11 275 25 115 76 186 165
228 56 26 174 49 252 50 l53 0 -3 -37 -3 -38 -65 -5 c-113 -10 -164 -45 -196
-135 -15 -42 -18 -89 -20 -290 -2 -220 -9 -299 -29 -347 -4 -10 -3 -18 1 -18
11 0 42 20 31 20 -4 0 0 12 9 26 17 26 19 38 24 169 2 39 9 79 16 90 18 26 18
64 -1 71 -12 5 -15 27 -15 110 0 90 2 106 18 112 11 4 17 18 17 37 0 46 57 74
225 112 105 24 472 24 580 0 92 -20 153 -41 194 -67 20 -12 41 -17 56 -13 16
4 21 3 16 -5 -4 -7 -14 -12 -22 -12 -24 0 -16 -40 11 -50 24 -9 25 -12 25
-114 0 -83 -3 -105 -15 -110 -9 -3 -15 -18 -15 -34 0 -16 7 -35 15 -42 11 -9
15 -32 15 -81 0 -37 4 -79 10 -93 5 -14 6 -26 1 -26 -13 0 22 -89 38 -95 21
-8 21 -4 6 56 -10 38 -16 132 -18 310 l-4 257 -29 52 c-37 68 -93 102 -183
109 l-66 6 -3 38 -3 37 48 0 c81 0 211 -28 271 -58 106 -53 151 -144 161 -325
l6 -99 135 -2 c135 -2 143 -4 240 -50 109 -52 207 -182 246 -326 38 -140 18
-399 -38 -513 -18 -37 -19 -55 -1 -44 4 3 17 23 28 44 11 21 24 41 30 45 5 4
164 8 352 8 l342 0 10 38 c10 37 14 75 12 100 -1 9 -75 12 -328 14 -303 2
-313 3 -133 8 l195 6 -196 2 c-108 1 -198 4 -201 7 -3 4 -1 25 4 48 15 65 16
82 6 139 -5 29 -9 71 -9 93 1 29 -15 71 -56 153 -31 63 -62 116 -70 119 -9 4
-10 9 -4 17 16 19 -34 74 -75 82 -19 3 -37 10 -40 15 -9 15 -96 56 -154 73
-30 9 -95 18 -144 21 -50 3 -96 10 -103 16 -7 6 -15 27 -19 47 -5 27 -3 38 10
47 22 17 20 46 -4 52 -11 3 -20 9 -20 14 0 31 -49 130 -83 167 -47 50 -91 75
-192 108 -63 21 -71 21 -87 7 -16 -14 -20 -13 -45 5 -27 20 -28 20 -65 1 -25
-13 -40 -28 -44 -47 -4 -15 -10 -31 -15 -37 -4 -6 -108 -10 -276 -9 l-268 0
-16 32 c-31 61 -72 94 -83 67z"/>
<path d="M3346 2498 c-19 -26 -21 -109 -6 -189 20 -104 80 -158 187 -167 48
-4 52 -7 58 -33 9 -40 41 -39 50 1 15 69 -28 139 -87 141 -31 0 -85 16 -63 19
6 0 -5 8 -23 17 -19 9 -38 28 -44 42 -5 14 -14 28 -19 32 -6 3 -13 40 -16 82
-3 43 -9 77 -14 77 -4 0 -15 -10 -23 -22z"/>
<path d="M3680 2454 c0 -6 7 -30 15 -53 8 -22 10 -41 6 -41 -5 0 -4 -21 1 -47
6 -27 11 -66 11 -88 1 -78 -12 -228 -21 -237 -14 -14 -268 -6 -264 10 4 21
-15 13 -42 -18 -33 -40 -48 -97 -50 -190 -1 -73 -1 -75 29 -89 17 -9 66 -17
111 -19 67 -3 88 0 127 18 59 28 110 86 139 159 20 51 22 74 23 241 0 151 -3
194 -18 235 -18 53 -66 138 -67 119z m-67 -491 c-35 -2 -91 -2 -125 0 -35 2
-7 3 62 3 69 0 97 -1 63 -3z"/>
<path d="M1900 2239 c0 -5 5 -7 10 -4 6 3 10 8 10 11 0 2 -4 4 -10 4 -5 0 -10
-5 -10 -11z"/>
<path d="M3160 2246 c0 -2 7 -9 15 -16 13 -11 14 -10 9 4 -5 14 -24 23 -24 12z"/>
<path d="M1783 2142 c-76 -31 -81 -51 -20 -82 52 -27 92 -63 123 -113 46 -71
56 -134 63 -412 8 -277 13 -306 63 -352 34 -32 101 -53 169 -53 l59 0 0 -46 0
-47 -97 5 c-75 4 -116 12 -173 34 l-75 28 -549 3 c-622 4 -570 12 -493 -82
l42 -52 110 -6 c145 -9 2946 -9 3104 0 l122 6 49 62 c28 35 50 66 50 69 0 4
-258 5 -572 3 l-573 -3 -75 -29 c-62 -23 -91 -28 -170 -29 l-95 -1 1 40 1 40
69 6 c78 7 129 26 161 60 44 48 52 95 54 311 2 245 12 336 45 408 31 67 72
112 142 152 29 16 51 35 49 41 -6 18 -131 67 -136 54 -2 -7 -19 -27 -39 -44
-20 -18 -33 -33 -29 -33 8 0 -43 -81 -58 -92 -5 -4 -257 -9 -560 -10 l-550 -3
545 -5 545 -5 -540 -2 c-498 -2 -542 -1 -560 15 -23 19 -71 93 -68 104 2 4
-15 22 -37 39 -22 18 -37 36 -34 40 3 5 4 8 2 8 -2 -1 -31 -13 -65 -27z m1292
-389 l1 -53 -536 0 -535 0 -3 45 c-2 25 0 50 3 55 4 7 198 9 538 8 l531 -3 1
-52z m1 -285 c-1 -24 -5 -46 -11 -50 -13 -10 -1025 -9 -1045 0 -10 5 -15 22
-16 50 l-1 42 537 0 537 0 -1 -42z m-263 -264 c-19 -19 -24 -33 -21 -55 4 -24
0 -30 -16 -35 -12 -2 -124 -3 -251 -2 l-230 3 -6 43 c-3 25 -13 48 -25 57 -17
13 15 14 278 15 l297 0 -26 -26z"/>
<path d="M1653 1998 c1 -10 -123 -14 -588 -18 l-590 -5 585 -5 585 -5 -608 -3
-607 -2 1 -32 c1 -18 6 -52 12 -75 l9 -43 615 -2 615 -3 2 -52 1 -52 -592 -3
c-325 -2 -594 -6 -598 -9 -3 -4 8 -43 25 -87 l30 -79 47 -7 c25 -3 282 -6 570
-6 l524 0 -3 -47 -3 -48 -538 -3 c-295 -1 -537 -6 -537 -10 0 -4 19 -41 43
-82 l43 -75 54 -7 c30 -3 270 -6 532 -7 460 -1 477 -2 483 -20 3 -11 13 -25
22 -33 15 -11 16 -11 9 7 -39 95 -47 162 -51 422 -2 144 -9 280 -15 302 -6 22
-22 54 -36 71 -27 31 -46 39 -41 18z"/>
<path d="M3841 1657 c-76 -79 -164 -111 -301 -111 -75 0 -105 5 -144 22 -26
12 -52 19 -57 16 -5 -3 -9 -59 -9 -125 0 -112 -13 -189 -46 -274 -7 -20 -7
-20 14 -1 12 11 22 25 22 33 0 11 84 13 478 13 264 0 513 3 554 6 l76 7 41 72
c22 40 41 78 41 84 0 8 -150 11 -547 11 -302 0 -553 4 -559 8 -7 4 -11 26 -11
50 l2 42 545 1 c300 0 565 4 590 7 l45 7 29 78 c16 42 26 80 22 85 -4 4 -173
8 -374 10 l-367 3 -44 -44z"/>
<path d="M1076 821 l-30 -6 67 -61 c65 -59 69 -61 134 -67 92 -9 2574 -7 2644
2 50 6 64 13 124 66 l68 60 -39 7 c-49 9 -2928 8 -2968 -1z"/>
</g>
</svg>
